<svg width="32" height="33" viewBox="0 0 32 33" fill="none" xmlns="http://www.w3.org/2000/svg">
<g clip-path="url(#clip0_79_4)">
<path d="M16 27.5C15.77 27.5 15.539 27.421 15.352 27.262C15.11 27.056 9.41 22.162 7.032 16.824C6.807 16.32 7.034 15.728 7.539 15.504C8.042 15.28 8.634 15.506 8.859 16.011C10.598 19.916 14.436 23.71 15.983 25.141C18.713 22.491 24 16.569 24 12.73C24 8.192 20.411 4.5 16 4.5C11.589 4.5 8 8.192 8 12.73C8 13.282 7.552 13.73 7 13.73C6.448 13.73 6 13.282 6 12.73C6 7.089 10.486 2.5 16 2.5C21.514 2.5 26 7.089 26 12.73C26 18.642 17.056 26.889 16.675 27.238C16.484 27.412 16.242 27.5 16 27.5Z" fill="#222222"/>
<path d="M16 16.5C13.794 16.5 12 14.706 12 12.5C12 10.294 13.794 8.5 16 8.5C18.206 8.5 20 10.294 20 12.5C20 14.706 18.206 16.5 16 16.5ZM16 10.5C14.897 10.5 14 11.397 14 12.5C14 13.603 14.897 14.5 16 14.5C17.103 14.5 18 13.603 18 12.5C18 11.397 17.103 10.5 16 10.5Z" fill="#222222"/>
<path d="M29 30.5H3C2.644 30.5 2.314 30.311 2.135 30.002C1.956 29.693 1.955 29.314 2.132 29.004L6.132 22.004C6.406 21.525 7.017 21.357 7.496 21.632C7.975 21.906 8.142 22.517 7.868 22.996L4.723 28.5H27.276L24.131 22.996C23.857 22.517 24.024 21.906 24.503 21.632C24.982 21.356 25.593 21.525 25.867 22.004L29.867 29.004C30.044 29.314 30.043 29.693 29.864 30.002C29.686 30.311 29.356 30.5 29 30.5Z" fill="#222222"/>
</g>
<defs>
<clipPath id="clip0_79_4">
<rect width="32" height="32" fill="white" transform="translate(0 0.5)"/>
</clipPath>
</defs>
</svg>
