<svg width="98" height="110" viewBox="0 0 98 110" fill="none" xmlns="http://www.w3.org/2000/svg">
<path d="M46.5385 101.539V110C56.447 110 64.3162 106.391 70.3281 101.539H46.5385Z" fill="black"/>
<path d="M4.23074 59.2308V67.6924C4.23074 78.2693 12.6923 80.3847 12.6923 80.3847C12.6923 80.3847 21.1538 105.769 46.5384 105.769" stroke="black" stroke-width="2" stroke-miterlimit="10" stroke-linecap="round"/>
<path d="M93.0769 63.4615H80.3846C80.3846 37.0615 67.6923 25.3846 67.6923 25.3846C55 55 12.6923 33.8462 12.6923 63.4615H0C0 63.4615 0 62.9623 0 46.5385C0 16.9231 25.3846 0 46.5385 0C63.4615 0 67.6923 8.46154 67.6923 8.46154C84.6154 8.46154 93.0769 29.6154 93.0769 46.5385V63.4615Z" fill="black"/>
<path d="M48.6538 80.3847C47.9092 80.3847 45.1677 80.3847 44.4231 80.3847C40.92 80.3847 38.0769 83.2278 38.0769 86.7309C38.0769 90.2339 40.92 93.077 44.4231 93.077C45.1677 93.077 47.9092 93.077 48.6538 93.077C52.1569 93.077 55 90.2339 55 86.7309C55 83.2278 52.1569 80.3847 48.6538 80.3847Z" fill="black"/>
<path d="M50.7693 88.8462H71.9231C81.2689 88.8462 88.8462 81.2689 88.8462 71.9231V59.2308" stroke="black" stroke-width="2" stroke-miterlimit="10" stroke-linecap="round"/>
<path d="M88.8461 76.1538H80.3846V55H88.8461C93.5211 55 97.3077 58.7865 97.3077 63.4615V67.6923C97.3077 72.3673 93.5211 76.1538 88.8461 76.1538Z" fill="black"/>
</svg>
